<svg xmlns="http://www.w3.org/2000/svg" xmlns:xlink="http://www.w3.org/1999/xlink" viewBox="0 0 2288.98 1449.99"><defs><style>.cls-1{fill:none;}.cls-2{isolation:isolate;}.cls-3{clip-path:url(#clip-path);}.cls-4{fill:url(#Áåçûìÿííûé_ãðàäèåíò_87);}.cls-13,.cls-15,.cls-16,.cls-5{opacity:0.3;}.cls-13,.cls-15,.cls-16,.cls-20,.cls-34,.cls-35,.cls-36,.cls-40,.cls-41,.cls-5{mix-blend-mode:multiply;}.cls-6{fill:#ac7077;}.cls-7{fill:url(#Áåçûìÿííûé_ãðàäèåíò_20);}.cls-8,.cls-9{fill:#4f80dd;}.cls-9{opacity:0.2;}.cls-10{fill:#351d77;}.cls-11{fill:url(#Áåçûìÿííûé_ãðàäèåíò_68);}.cls-12{fill:url(#Áåçûìÿííûé_ãðàäèåíò_68-2);}.cls-13{fill:#4a0c59;}.cls-14{fill:#1d0422;}.cls-15{fill:#290c46;}.cls-16,.cls-17,.cls-20{fill:#290c34;}.cls-18{fill:#361b41;}.cls-19{fill:url(#Áåçûìÿííûé_ãðàäèåíò_68-3);}.cls-20,.cls-21,.cls-22,.cls-30{opacity:0.5;}.cls-21,.cls-22,.cls-23,.cls-24,.cls-30,.cls-42,.cls-43,.cls-44{mix-blend-mode:color-dodge;}.cls-21{fill:url(#Áåçûìÿííûé_ãðàäèåíò_99);}.cls-22{fill:url(#Áåçûìÿííûé_ãðàäèåíò_100);}.cls-23{fill:url(#Áåçûìÿííûé_ãðàäèåíò_163);}.cls-24{fill:url(#Áåçûìÿííûé_ãðàäèåíò_163-2);}.cls-25{fill:url(#Áåçûìÿííûé_ãðàäèåíò_151);}.cls-26{fill:url(#Áåçûìÿííûé_ãðàäèåíò_157);}.cls-27{fill:url(#Áåçûìÿííûé_ãðàäèåíò_151-2);}.cls-28{fill:url(#Áåçûìÿííûé_ãðàäèåíò_157-2);}.cls-29{fill:#584278;}.cls-30{fill:url(#Áåçûìÿííûé_ãðàäèåíò_86);}.cls-31{fill:url(#Áåçûìÿííûé_ãðàäèåíò_3);}.cls-32{fill:#361b81;}.cls-33{fill:#11001e;}.cls-34{fill:url(#Áåçûìÿííûé_ãðàäèåíò_59);}.cls-35{fill:url(#Áåçûìÿííûé_ãðàäèåíò_59-2);}.cls-36{fill:url(#Áåçûìÿííûé_ãðàäèåíò_59-3);}.cls-37{fill:#00e7d8;mix-blend-mode:soft-light;}.cls-38{fill:#73ffe5;}.cls-39{fill:#0088a6;}.cls-40{fill:url(#Áåçûìÿííûé_ãðàäèåíò_59-4);}.cls-41{fill:url(#Áåçûìÿííûé_ãðàäèåíò_59-5);}.cls-42{fill:url(#Áåçûìÿííûé_ãðàäèåíò_163-3);}.cls-43{fill:url(#Áåçûìÿííûé_ãðàäèåíò_163-4);}.cls-44{fill:url(#Áåçûìÿííûé_ãðàäèåíò_163-5);}</style><clipPath id="clip-path"><rect class="cls-1" x="-23.79" y="-15.07" width="2336.55" height="1480.13"/></clipPath><radialGradient id="Áåçûìÿííûé_ãðàäèåíò_87" cx="1132.15" cy="15604.55" r="789.98" gradientTransform="translate(-59.98 -4959.67) scale(1.05 0.34)" gradientUnits="userSpaceOnUse"><stop offset="0.01" stop-color="#2e4fbb"/><stop offset="1" stop-color="#3d216a"/></radialGradient><radialGradient id="Áåçûìÿííûé_ãðàäèåíò_20" cx="1139.41" cy="1304.25" r="810.42" gradientTransform="translate(-59.98) scale(1.05 1)" gradientUnits="userSpaceOnUse"><stop offset="0" stop-color="#6366b8"/><stop offset="1" stop-color="#5c475b"/></radialGradient><radialGradient id="Áåçûìÿííûé_ãðàäèåíò_68" cx="470.36" cy="697.24" r="545.84" gradientTransform="translate(-59.98) scale(1.05 1)" gradientUnits="userSpaceOnUse"><stop offset="0.01" stop-color="#2969bb"/><stop offset="1" stop-color="#4d2d74"/></radialGradient><radialGradient id="Áåçûìÿííûé_ãðàäèåíò_68-2" cx="1884.74" cy="697.24" r="545.93" xlink:href="#Áåçûìÿííûé_ãðàäèåíò_68"/><radialGradient id="Áåçûìÿííûé_ãðàäèåíò_68-3" cx="1165.68" cy="1016.09" r="706.65" xlink:href="#Áåçûìÿííûé_ãðàäèåíò_68"/><linearGradient id="Áåçûìÿííûé_ãðàäèåíò_99" x1="1773.45" y1="1039.92" x2="2217.36" y2="1039.92" gradientUnits="userSpaceOnUse"><stop offset="0" stop-color="#31528d"/><stop offset="1"/></linearGradient><linearGradient id="Áåçûìÿííûé_ãðàäèåíò_100" x1="116.21" y1="1036.34" x2="487.78" y2="1036.34" gradientUnits="userSpaceOnUse"><stop offset="0"/><stop offset="1" stop-color="#31528d"/></linearGradient><radialGradient id="Áåçûìÿííûé_ãðàäèåíò_163" cx="820.84" cy="759.76" r="20.33" gradientTransform="matrix(-6.88, -0.02, 0.01, -17.66, 6264.27, 13546.05)" gradientUnits="userSpaceOnUse"><stop offset="0" stop-color="#e0c010"/><stop offset="0.18" stop-color="#bea30e"/><stop offset="0.56" stop-color="#685907"/><stop offset="1"/></radialGradient><radialGradient id="Áåçûìÿííûé_ãðàäèåíò_163-2" cx="819.41" cy="703.98" r="20.33" gradientTransform="matrix(-6.88, -0.02, 0.01, -17.66, 7239.82, 12574.88)" xlink:href="#Áåçûìÿííûé_ãðàäèåíò_163"/><radialGradient id="Áåçûìÿííûé_ãðàäèåíò_151" cx="626.35" cy="119.74" r="117.26" gradientTransform="translate(-59.98) scale(1.05 1)" gradientUnits="userSpaceOnUse"><stop offset="0" stop-color="#ffddc0"/><stop offset="1" stop-color="#fff"/></radialGradient><radialGradient id="Áåçûìÿííûé_ãðàäèåíò_157" cx="626.35" cy="114.24" r="118.26" gradientTransform="translate(-59.98) scale(1.05 1)" gradientUnits="userSpaceOnUse"><stop offset="0" stop-color="#ffc498"/><stop offset="1" stop-color="#ffdcca"/></radialGradient><radialGradient id="Áåçûìÿííûé_ãðàäèåíò_151-2" cx="922.16" cy="119.74" r="117.26" gradientTransform="matrix(-1.05, 0, 0, 1, 2602.43, 0)" xlink:href="#Áåçûìÿííûé_ãðàäèåíò_151"/><radialGradient id="Áåçûìÿííûé_ãðàäèåíò_157-2" cx="922.16" cy="114.24" r="118.26" gradientTransform="matrix(-1.05, 0, 0, 1, 2602.43, 0)" xlink:href="#Áåçûìÿííûé_ãðàäèåíò_157"/><linearGradient id="Áåçûìÿííûé_ãðàäèåíò_86" x1="1068.41" y1="989.05" x2="1138.54" y2="989.05" gradientUnits="userSpaceOnUse"><stop offset="0"/><stop offset="1" stop-color="#6dd6e0"/></linearGradient><linearGradient id="Áåçûìÿííûé_ãðàäèåíò_3" x1="1123.23" y1="1003.74" x2="1142.71" y2="1003.74" gradientUnits="userSpaceOnUse"><stop offset="0" stop-color="#ffffd1"/><stop offset="1" stop-color="#ffdac0"/></linearGradient><linearGradient id="Áåçûìÿííûé_ãðàäèåíò_59" x1="1205.58" y1="1238.32" x2="1205.58" y2="1064.33" gradientUnits="userSpaceOnUse"><stop offset="0" stop-color="#005665"/><stop offset="0.53" stop-color="#005074"/><stop offset="1" stop-color="#004d7b"/></linearGradient><linearGradient id="Áåçûìÿííûé_ãðàäèåíò_59-2" x1="1236.62" y1="1104.55" x2="1236.62" y2="1102.15" xlink:href="#Áåçûìÿííûé_ãðàäèåíò_59"/><linearGradient id="Áåçûìÿííûé_ãðàäèåíò_59-3" x1="1239.12" y1="1238.32" x2="1239.12" y2="1135.71" xlink:href="#Áåçûìÿííûé_ãðàäèåíò_59"/><linearGradient id="Áåçûìÿííûé_ãðàäèåíò_59-4" x1="1238.14" y1="1165.65" x2="1238.14" y2="1126.01" xlink:href="#Áåçûìÿííûé_ãðàäèåíò_59"/><linearGradient id="Áåçûìÿííûé_ãðàäèåíò_59-5" x1="1238.57" y1="1238.32" x2="1238.57" y2="1236.39" xlink:href="#Áåçûìÿííûé_ãðàäèåíò_59"/><radialGradient id="Áåçûìÿííûé_ãðàäèåíò_163-3" cx="958.72" cy="722.6" r="5.39" gradientTransform="matrix(-0.18, 6.88, -13.98, -0.34, 11514.91, -5271)" xlink:href="#Áåçûìÿííûé_ãðàäèåíò_163"/><radialGradient id="Áåçûìÿííûé_ãðàäèåíò_163-4" cx="948.17" cy="730.12" r="2.39" gradientTransform="matrix(-0.18, 6.88, -13.98, -0.34, 11514.91, -5271)" xlink:href="#Áåçûìÿííûé_ãðàäèåíò_163"/><radialGradient id="Áåçûìÿííûé_ãðàäèåíò_163-5" cx="981.11" cy="722.31" r="5.39" gradientTransform="matrix(-6.88, -0.02, 0.01, -13.99, 7975.82, 11356.81)" xlink:href="#Áåçûìÿííûé_ãðàäèåíò_163"/></defs><g class="cls-2"><g id="security_room" data-name="security room"><g class="cls-3"><polygon class="cls-4" points="2312.77 -15.07 1975.91 284.66 327.19 284.66 -23.79 -15.07 2312.77 -15.07"/><g class="cls-5"><polygon class="cls-6" points="2260.11 -30.86 1728.36 286.97 1723.8 287.01 2252.65 -30.86 2260.11 -30.86"/><polygon class="cls-6" points="1912.57 -30.86 1560.82 288.65 1558.24 288.67 1903.56 -30.86 1912.57 -30.86"/><polygon class="cls-6" points="1266 -30.86 1206.31 291.93 1209.81 291.89 1271.72 -30.86 1266 -30.86"/><polygon class="cls-6" points="1552.64 -30.86 1391.86 290.34 1392.98 290.34 1562.37 -30.86 1552.64 -30.86"/><polygon class="cls-6" points="2306.36 90.87 1922.2 285.03 1925.45 285 2306.36 93.17 2306.36 90.87"/><polygon class="cls-6" points="-37.86 -30.86 532.34 298.78 533.58 298.93 -30.4 -30.86 -37.86 -30.86"/><polygon class="cls-6" points="309.68 -30.86 675.09 298.01 677.77 298.01 318.69 -30.86 309.68 -30.86"/><polygon class="cls-6" points="935.72 -30.86 995.86 294.37 994.51 294.37 930 -30.86 935.72 -30.86"/><polygon class="cls-6" points="669.61 -30.86 836.25 295.9 835.12 295.9 659.89 -30.86 669.61 -30.86"/><polygon class="cls-6" points="-84.1 90.87 381.89 300.45 379.77 300.06 -84.1 93.17 -84.1 90.87"/><polygon class="cls-6" points="-81.68 76.5 2306.36 57.03 2306.36 51.36 -81.68 74.07 -81.68 76.5"/><polygon class="cls-6" points="2256.95 179.28 -80.57 154.33 -80.57 151.06 2260.11 176.32 2256.95 179.28"/><polygon class="cls-6" points="2114.28 227.97 116.35 222.21 121.78 224.27 2111.78 229.02 2114.28 227.97"/><polygon class="cls-6" points="2057.24 251.87 211.54 258.32 215.45 259.8 2055.7 252.51 2057.24 251.87"/><polygon class="cls-6" points="2023.92 265.82 296.88 290.69 295.66 290.23 2025.2 265.28 2023.92 265.82"/></g><polygon class="cls-7" points="2332.61 1470.2 2332.61 1291.81 1927.9 1138.31 272.62 1154.88 -54.32 1291.81 -54.32 1470.2 2332.61 1470.2"/><g class="cls-5"><polygon class="cls-6" points="-8.07 1470.2 523.68 1152.37 528.24 1152.32 -0.61 1470.2 -8.07 1470.2"/><polygon class="cls-6" points="339.47 1470.2 691.22 1150.69 693.8 1150.66 348.48 1470.2 339.47 1470.2"/><polygon class="cls-6" points="986.04 1470.2 1045.73 1147.41 1042.23 1147.45 980.33 1470.2 986.04 1470.2"/><polygon class="cls-6" points="699.4 1470.2 860.18 1149 859.06 1149 689.67 1470.2 699.4 1470.2"/><polygon class="cls-6" points="-54.32 1348.46 329.84 1154.31 326.59 1154.34 -54.32 1346.16 -54.32 1348.46"/><polygon class="cls-6" points="2289.9 1470.2 1719.7 1140.55 1718.46 1140.41 2282.44 1470.2 2289.9 1470.2"/><polygon class="cls-6" points="1942.36 1470.2 1576.95 1141.33 1574.27 1141.33 1933.35 1470.2 1942.36 1470.2"/><polygon class="cls-6" points="1316.32 1470.2 1256.18 1144.97 1257.53 1144.97 1322.04 1470.2 1316.32 1470.2"/><polygon class="cls-6" points="1582.43 1470.2 1415.79 1143.44 1416.92 1143.44 1592.15 1470.2 1582.43 1470.2"/><polygon class="cls-6" points="2336.14 1348.46 1870.14 1138.89 1872.27 1139.28 2336.14 1346.16 2336.14 1348.46"/><polygon class="cls-6" points="2333.72 1362.84 -54.32 1382.31 -54.32 1387.98 2333.72 1365.27 2333.72 1362.84"/><polygon class="cls-6" points="-4.91 1260.06 2332.61 1285.01 2332.61 1288.28 -8.07 1263.02 -4.91 1260.06"/><polygon class="cls-6" points="137.76 1211.36 2135.69 1217.12 2130.26 1215.06 140.26 1210.32 137.76 1211.36"/><polygon class="cls-6" points="194.8 1187.47 2040.5 1181.02 2036.59 1179.53 196.34 1186.83 194.8 1187.47"/><polygon class="cls-6" points="228.12 1173.52 1955.16 1148.65 1956.38 1149.11 226.84 1174.05 228.12 1173.52"/></g><polygon class="cls-8" points="986.04 1470.2 1003.11 1377.92 1017.83 1379.26 1006.75 1379.42 986.04 1470.2"/><polygon class="cls-8" points="1592.15 1470.2 1535.88 1365.27 1552.39 1382.71 1558.35 1399.49 1597.05 1470.2 1592.15 1470.2"/><polygon class="cls-8" points="1942.36 1470.2 1819.53 1359.28 1830.15 1361.72 1836.95 1368.22 1942.36 1470.2"/><polygon class="cls-8" points="2143.49 1385.55 2166.2 1393.8 2206.84 1422.01 2143.49 1385.55"/><polygon class="cls-8" points="339.47 1470.2 354.32 1446.56 390.1 1422.55 412.82 1399.25 438.25 1380.47 339.47 1470.2"/><polygon class="cls-8" points="142.4 1379.81 147.07 1372.92 348.16 1257.27 142.4 1379.81"/><path class="cls-8" d="M1975.07,1288.28,1849.73,1215s32.49,15.48,34.17,17.07l6.08,5.8,43.2,24.61Z"/><polygon class="cls-8" points="2082.38 1350.22 2073.28 1342.14 2043.6 1327.8 2082.38 1350.22"/><polygon class="cls-9" points="699.4 1470.2 744.64 1379.81 998.01 1377.97 980.33 1470.2 699.4 1470.2"/><polygon class="cls-9" points="739.43 1375.84 794.17 1272.05 565.69 1269.21 448.15 1377.97 739.43 1375.84"/><polygon class="cls-9" points="1539.71 1369.31 1820.69 1367.02 1727.59 1281.75 1489.71 1279.18 1539.71 1369.31"/><polygon class="cls-8" points="1298.73 1375.11 1006.75 1379.42 1003 1383.65 1298.73 1375.11"/><polygon class="cls-8" points="565.69 1269.21 785.97 1274.17 788.41 1277.5 750.53 1354.79 794.74 1270.56 565.69 1269.21"/><polygon class="cls-8" points="1302.03 1369.31 1283.84 1277.63 1485.02 1279.18 1485.02 1279.18 1289.11 1280.92 1286.87 1282.63 1302.03 1369.31"/><polygon class="cls-10" points="1858.75 1208.2 1975.91 284.66 327.19 284.66 301.19 1187.54 1858.75 1208.2"/><polygon class="cls-11" points="-23.79 -15.07 435.42 284.66 438.25 1188.6 -23.79 1465.06 -23.79 -15.07"/><polygon class="cls-12" points="2312.77 -15.07 1849.73 284.66 1858.75 1208.2 2312.77 1465.06 2312.77 -15.07"/><polygon class="cls-13" points="1861.21 1169.49 1915.4 316.55 2312.77 12.07 2312.77 -15.07 1840.26 226.69 438.25 265.28 -23.79 -15.07 -23.79 36.74 413.67 333.69 438.25 1188.6 1861.21 1169.49"/><path class="cls-14" d="M1240.6,1205.73c-.9-.13-93-13.18-309.31-11.91l-9.29,0c-227.6,0-287.32-51.44-302.63-82.39-17.9-36.2-23.74-126.47-24-130.3l3.88-.19c.06.93,6,93.49,23.66,129.11,12,24.33,65.26,80.34,299.31,80.34l9,0c216.7-1.27,309.06,11.82,310,11.95Z"/><path class="cls-14" d="M1259.73,1188.18l-.49-3.39c.4,0,39.91-4.57,51.51-14.73,8.52-7.47,8-119.56,5.52-193.07l3.89-.1c.63,18.87,5.79,184.67-6.66,195.58S1261.41,1188,1259.73,1188.18Z"/><path class="cls-14" d="M1638.78,1215.92c-145,0-357-8.73-369.89-9.27l.17-3.7c4.61.2,461.52,19,500,2.39,2.7-1.17,4.57-3.36,5.71-6.7,13.5-39.37-82.48-201.94-83.44-203.58l3.39-1.82c4,6.75,97.78,165.65,83.75,206.55a14.16,14.16,0,0,1-7.8,8.91C1758.24,1214.07,1705.6,1215.92,1638.78,1215.92Z"/><path class="cls-14" d="M923,1211h-1.69c-43.39-.07-119.31-2.56-128.65-11.45-1.81-1.71-1.76-3.88.11-5.66,11.27-10.7,136.58-8.62,234.1-5.29-33.14-5.44-95.1-10-133.54-12.88-47.76-3.53-77.32-5.83-83.06-8.41-16.36-7.34,7.93-129.73,13-154.18l3.82.7c-14.33,69.64-24.5,145.92-15.11,150.14,5.38,2.41,42.45,5.16,81.69,8.07,74.34,5.5,131.13,10.21,151.5,17.21,46.52,1.72,83.92,3.56,94.66,4.1l-.21,3.7c-26.91-1.37-56.68-2.68-87.14-3.82a3.66,3.66,0,0,1,.68,1.08c.34.88.63,2.63-1.31,4.46C1039.72,1210.29,946,1211,923,1211Zm-127.77-14.13c.07,0,1.2,1.84,12.29,3.92,52.05,9.78,227.7,8.52,241.54-4.63.38-.36.41-.55.41-.55-.14-.89-1.38-1.76-3.56-2.62-116.56-4.24-240.72-5.67-250.39,3.52a1.13,1.13,0,0,0-.29.36Z"/><path class="cls-15" d="M2217.36,1070.9l-367.62-69.31L528.22,993.27l-412,53.65-140,196.75v221.39l314.15,5.14,120.88-90.4-71.77-218.46,131.31-66.91,88.38,154.63,572.19-38.74,51.43,33.36h10.37l39-28.39,504.79,33.77,28.72-192.89,115.31,54.25,137.9,43.89-107.06,230.08L2056,1470.2l182.76-5.14h74V1133.88ZM93,1394.75l56.31-140.57,99.62,114Zm1970-7.62,110.56-136.8L2214.92,1410Z"/><polygon class="cls-16" points="553.5 1251.66 400.69 1309.6 329.84 1257.27 476.53 1222.87 553.5 1251.66"/><polygon class="cls-16" points="1819.53 1222.87 1736.9 1249.06 1989.54 1272.69 1895.73 1229.12 1819.53 1222.87"/><polygon class="cls-14" points="2185.27 1075.83 2173.53 1250.34 2062.99 1387.12 1911.77 1384.37 1909.36 1075.83 2185.27 1075.83"/><polygon class="cls-17" points="1911.77 1384.37 1904.82 1375.05 1895.73 1075.83 1909.36 1075.83 1911.77 1384.37"/><polygon class="cls-14" points="1742.56 1020.02 1742.56 1251.66 1819.53 1222.87 1858.19 1128.33 1857.06 969.22 1742.56 1020.02"/><polygon class="cls-17" points="1742.56 1251.66 1736.9 1249.06 1731.55 1016.09 1742.56 1020.02 1742.56 1251.66"/><polygon class="cls-14" points="1193.15 1243.68 1182.78 1243.68 1180.99 1008.11 1194.84 1011.04 1193.15 1243.68"/><polygon class="cls-14" points="553.5 1020.02 553.5 1251.66 476.53 1222.87 437.87 1128.33 439 969.22 553.5 1020.02"/><polygon class="cls-17" points="553.5 1251.66 559.16 1249.06 564.51 1016.09 553.5 1020.02 553.5 1251.66"/><polygon class="cls-18" points="116.22 1046.92 116.22 1062.65 437.87 1062.65 491.01 1034.98 555.16 1021.64 1724.01 1016 1766.02 1025.1 1870.14 1077.76 2211.66 1078.83 2217.36 1062.96 1921.39 1031.2 1751.02 993.26 470.78 993.26 301.19 1029.65 116.22 1046.92"/><polygon class="cls-19" points="1857.06 969.22 437.49 969.22 116.22 1046.92 431.74 1046.92 487.78 1025.75 559.38 1014.62 1724.74 1008.14 1773.45 1016.89 1870.14 1062.96 2217.36 1062.96 1857.06 969.22"/><polygon class="cls-17" points="1870.14 1077.76 1870.14 1062.96 2217.36 1062.96 2211.66 1078.83 1870.14 1077.76"/><polygon class="cls-17" points="437.87 1062.65 431.74 1046.92 116.22 1046.92 116.22 1062.65 437.87 1062.65"/><polygon class="cls-14" points="137.76 1062.65 149.35 1254.18 248.96 1368.22 411.26 1368.22 413.67 1062.65 137.76 1062.65"/><polygon class="cls-17" points="411.26 1368.22 418.21 1358.98 427.3 1062.65 413.67 1062.65 411.26 1368.22"/><polygon class="cls-20" points="1896.37 1096.91 1909.57 1102.43 2182.94 1110.44 2185.27 1078.83 1895.79 1077.84 1896.37 1096.91"/><polygon class="cls-20" points="427.3 1062.65 426.86 1076.86 139.69 1094.45 137.76 1062.65 427.3 1062.65"/><polygon class="cls-21" points="2217.36 1062.96 1870.14 1056.64 1773.45 1016.89 1870.14 1062.96 2217.36 1062.96"/><polygon class="cls-22" points="116.22 1046.92 431.74 1046.92 487.78 1025.75 436.92 1040.83 116.22 1046.92"/><ellipse class="cls-23" cx="624.71" cy="114.24" rx="139.86" ry="359.02" transform="translate(495.76 736.08) rotate(-88.65)"/><ellipse class="cls-24" cx="1609.68" cy="128.08" rx="139.86" ry="359.02" transform="translate(1443.67 1734.29) rotate(-88.65)"/><polygon class="cls-25" points="431.35 76.66 527.98 165.17 767.05 164.55 718.07 74.32 431.35 76.66"/><polygon class="cls-26" points="431.35 76.66 434.27 63.93 717.95 63.93 767.05 160.21 767.05 164.55 718.07 74.32 431.35 76.66"/><polygon class="cls-27" points="1799.79 76.66 1703.15 165.17 1464.09 164.55 1513.07 74.32 1799.79 76.66"/><polygon class="cls-28" points="1799.79 76.66 1796.86 63.93 1513.19 63.93 1464.09 160.21 1464.09 164.55 1513.07 74.32 1799.79 76.66"/><path class="cls-15" d="M1187.9,1002.71c0,2.79-30.77,5.06-68.72,5.06s-68.72-2.27-68.72-5.06,30.76-5.05,68.72-5.05S1187.9,999.92,1187.9,1002.71Z"/><path class="cls-17" d="M1142.71,1004.34c-20.45,4.84-47.2,0-47.2,0l-27.65-4.48s.2-.19.55-.48c3.77-3.48,25.81-22.61,47.31-20.5,12.31,1.22,19.12,8.14,22.82,14.43A34.09,34.09,0,0,1,1142.71,1004.34Z"/><path class="cls-29" d="M1073.07,995.41S1088.6,990,1099,992.6s14.43,13.65,14.43,13.65l-9.4-.76a32.5,32.5,0,0,0-32.09-9.17Z"/><path class="cls-30" d="M1138.54,993.31c-16.55,2.26-32.91-8.73-45.87-6.59-11.34,1.93-21.85,10.55-24.26,12.66,3.77-3.48,25.81-22.61,47.31-20.5C1128,980.1,1134.84,987,1138.54,993.31Z"/><path class="cls-31" d="M1123.23,1006.49l2.11-3.78,13.21-1.76,4.16,3.39S1137.67,1006.91,1123.23,1006.49Z"/><polygon class="cls-14" points="780.2 996.73 775.34 1005.17 1020.13 1004.32 1005.26 997.55 780.2 996.73"/><polygon class="cls-14" points="1037.15 988.93 1005.26 997.55 1020.13 1004.32 1042.97 993.55 1037.15 988.93"/><polygon class="cls-17" points="1037.15 988.93 823.26 988.93 780.2 996.73 1005.26 997.55 1037.15 988.93"/><polygon class="cls-15" points="302 736.1 235.83 798.43 -23.79 888.98 -23.79 467.39 79.31 435.33 302 736.1"/><polygon class="cls-17" points="186.99 730.54 314.97 709.03 320.77 507.6 191.57 455.05 227.93 437.06 394.43 512.69 393.38 716.35 223.91 742.57 186.99 730.54"/><polygon class="cls-14" points="394.43 716.35 314.97 709.03 320.77 507.6 394.43 512.69 394.43 716.35"/><polygon class="cls-14" points="192.99 736.1 314.97 709.03 320.77 507.6 227.5 469.67 192.99 736.1"/><polygon class="cls-14" points="79.31 435.33 87.37 749.89 219.22 752.75 219.22 426.49 79.31 435.33"/><path class="cls-32" d="M219.22,426.49V752.75l180.17-29.64V507.6ZM394.43,716.35,229.77,741.67l-1.84-304.61,166.5,75.63Z"/><polygon class="cls-32" points="220.49 594.86 398.75 609.59 399.24 605.27 219.22 582.22 220.49 594.86"/><polygon class="cls-14" points="304.95 510.69 328.01 496 341.3 503.9 348.76 501.13 362.41 507.6 367.91 507.6 362.41 547.93 304.95 510.69"/><polygon class="cls-32" points="367.91 507.6 381.57 511.8 355.54 599.67 343.25 595.91 367.91 507.6"/><polygon class="cls-32" points="362.41 507.6 348.76 501.13 314.97 589.37 333.46 595.91 362.41 507.6"/><polygon class="cls-32" points="341.3 501.13 309.3 591.81 293.92 586.76 328.01 496 341.3 501.13"/><polygon class="cls-32" points="373.46 719.57 359.47 716.35 378.94 624.78 394.43 631.87 373.46 719.57"/><polygon class="cls-32" points="350.71 719.57 376.95 630.95 365.58 627.81 332.54 716.35 350.71 719.57"/><polygon class="cls-14" points="332.54 716.35 293.59 711.43 311.18 637.42 365.58 627.81 332.54 716.35"/><polygon class="cls-14" points="359.47 716.35 352.21 714.51 378.94 624.78 359.47 716.35"/><polygon class="cls-15" points="1994.47 736.1 2060.64 798.43 2312.77 886.37 2312.77 476.94 2217.16 435.33 1994.47 736.1"/><polygon class="cls-17" points="2109.48 730.54 1981.49 709.03 1975.69 507.6 2104.89 455.05 2068.53 437.06 1902.04 512.69 1903.08 716.35 2072.55 742.57 2109.48 730.54"/><polygon class="cls-14" points="1902.04 716.35 1981.49 709.03 1975.69 507.6 1902.04 512.69 1902.04 716.35"/><polygon class="cls-14" points="2103.47 736.1 1981.49 709.03 1975.69 507.6 2068.96 469.67 2103.47 736.1"/><polygon class="cls-14" points="2217.16 435.33 2209.09 749.89 2077.24 752.75 2077.24 426.49 2217.16 435.33"/><path class="cls-32" d="M2077.25,426.49V752.75l-180.17-29.64V507.6ZM1902,716.35l164.65,25.32,1.84-304.61L1902,512.69Z"/><polygon class="cls-32" points="2075.97 594.86 1897.71 609.59 1897.22 605.27 2077.24 582.22 2075.97 594.86"/><polygon class="cls-32" points="2068.53 746.43 1963.86 725.86 1968.12 482.67 2060.61 437.06 2068.53 746.43"/><polygon class="cls-14" points="2068.53 437.06 2060.61 437.06 2058.96 744.55 2068.53 746.43 2068.53 437.06"/><polygon class="cls-14" points="1902.04 512.69 1870.14 469.87 1870.14 742.57 1902.04 720.96 1902.04 512.69"/><polygon class="cls-17" points="1870.14 742.57 1860.82 742.57 1856.41 467.39 1870.14 467.39 1870.14 742.57"/><polygon class="cls-15" points="2010.8 732.55 2014.89 476.94 1897.08 507.6 1902.04 512.69 1902.04 720.96 1897.08 723.11 2010.8 732.55"/><polygon class="cls-14" points="344.22 1008.29 343.63 1011.25 338.74 1012.03 344.22 1008.29"/><polygon class="cls-14" points="1205.5 1069.41 1272.27 1069.41 1283.04 1238.32 1194.09 1238.32 1205.5 1069.41"/><polygon class="cls-17" points="1262.68 1064.33 1276.1 1238.32 1283.04 1238.32 1272.81 1064.21 1262.68 1064.33"/><polygon class="cls-17" points="1200.07 1064.33 1194.09 1238.32 1199.64 1238.32 1209.71 1064.33 1200.07 1064.33"/><polygon class="cls-33" points="1200.07 1064.33 1206.14 1056.5 1254.46 1056.5 1272.81 1064.21 1262.68 1064.33 1252 1058.05 1212.15 1057.7 1209.71 1064.33 1200.07 1064.33"/><polygon class="cls-33" points="1263.07 1069.41 1249.79 1060.41 1212.69 1060.41 1209.6 1069.41 1263.07 1069.41"/><polygon class="cls-14" points="1263.07 1069.41 1249.79 1060.41 1212.69 1060.41 1209.6 1069.41 1209.71 1064.33 1212.15 1057.7 1252 1058.05 1262.68 1064.33 1263.07 1069.41"/><polygon class="cls-34" points="1209.71 1064.33 1199.64 1238.32 1205.49 1238.32 1211.52 1069.41 1209.71 1064.33"/><polygon class="cls-35" points="1207.52 1102.15 1265.7 1103.53 1265.78 1104.55 1207.46 1103.28 1207.52 1102.15"/><polygon class="cls-36" points="1205.39 1139.02 1264.63 1171.98 1268.97 1238.32 1272.86 1238.32 1265.85 1171.03 1205.58 1135.71 1205.39 1139.02"/><polygon class="cls-37" points="1208.97 1141.01 1264.63 1171.98 1268.97 1238.32 1266.02 1238.32 1263.27 1172.04 1208.97 1141.01"/><polygon class="cls-18" points="1209.6 1103.33 1265.78 1104.55 1265.78 1105.48 1209.71 1104.4 1209.6 1103.33"/><polygon class="cls-38" points="1219.42 1078.29 1221.08 1081.65 1251.7 1081.65 1253.82 1078.29 1244.13 1078.29 1241.37 1075.71 1230.71 1075.71 1228.62 1078.37 1219.42 1078.29"/><polygon class="cls-39" points="1221.08 1081.65 1219.85 1082.18 1252.43 1082.18 1251.7 1081.65 1221.08 1081.65"/><polygon class="cls-17" points="1206.14 1126.01 1270.14 1161.07 1268.8 1143.62 1207.09 1109.61 1206.14 1126.01"/><polygon class="cls-40" points="1206.14 1126.01 1208.97 1130.49 1270.14 1165.65 1270.14 1161.07 1206.14 1126.01"/><polygon class="cls-18" points="1209.71 1064.33 1205.49 1110.74 1268.97 1145.83 1268.8 1143.62 1207.09 1109.61 1209.71 1064.33"/><polygon class="cls-14" points="1252 1058.05 1262.68 1064.33 1268.97 1145.83 1264.55 1064.33 1252 1058.05"/><polygon class="cls-38" points="1219.25 1231.78 1222.2 1235.05 1254.17 1235.05 1256.13 1231.78 1219.25 1231.78"/><polygon class="cls-41" points="1194.09 1238.32 1194.09 1236.39 1283.04 1237.36 1283.04 1238.32 1194.09 1238.32"/><path class="cls-42" d="M1235.1,1114.85c-41.66-1-75-18.42-74.44-38.9s34.76-36.28,76.42-35.28,75,18.42,74.43,38.91S1276.76,1115.85,1235.1,1114.85Z"/><path class="cls-43" d="M1132.53,1019.11c-18.42-.44-33.15-8.14-32.91-17.2s15.37-16,33.79-15.6,33.15,8.15,32.91,17.2S1151,1019.56,1132.53,1019.11Z"/><ellipse class="cls-44" cx="1236.09" cy="1231.78" rx="37.1" ry="75.45" transform="translate(-24.06 2438.93) rotate(-88.67)"/></g></g></g></svg>